<svg xmlns="http://www.w3.org/2000/svg" width="400" height="280" viewBox="0 0 400 280">
  <rect width="400" height="280" fill="#e8f0fe"/>
  <g transform="translate(200,100)">
    <!-- Graph nodes -->
    <circle cx="-60" cy="-30" r="14" fill="#1a73e8" opacity="0.85"/>
    <circle cx="0" cy="-55" r="14" fill="#1a73e8" opacity="0.85"/>
    <circle cx="60" cy="-30" r="14" fill="#1a73e8" opacity="0.85"/>
    <circle cx="40" cy="35" r="14" fill="#1a73e8" opacity="0.85"/>
    <circle cx="-40" cy="35" r="14" fill="#1a73e8" opacity="0.85"/>
    <!-- Edges -->
    <line x1="-60" y1="-30" x2="0" y2="-55" stroke="#4a90d9" stroke-width="2.5" opacity="0.5"/>
    <line x1="0" y1="-55" x2="60" y2="-30" stroke="#4a90d9" stroke-width="2.5" opacity="0.5"/>
    <line x1="60" y1="-30" x2="40" y2="35" stroke="#4a90d9" stroke-width="2.5" opacity="0.5"/>
    <line x1="40" y1="35" x2="-40" y2="35" stroke="#4a90d9" stroke-width="2.5" opacity="0.5"/>
    <line x1="-40" y1="35" x2="-60" y2="-30" stroke="#4a90d9" stroke-width="2.5" opacity="0.5"/>
    <line x1="-60" y1="-30" x2="60" y2="-30" stroke="#4a90d9" stroke-width="2.5" opacity="0.5"/>
    <line x1="0" y1="-55" x2="-40" y2="35" stroke="#4a90d9" stroke-width="2.5" opacity="0.5"/>
    <!-- Spectral wave overlay -->
    <path d="M-90,70 Q-60,50 -30,70 Q0,90 30,70 Q60,50 90,70" stroke="#1a73e8" stroke-width="2" fill="none" opacity="0.4"/>
    <path d="M-90,85 Q-60,65 -30,85 Q0,105 30,85 Q60,65 90,85" stroke="#1a73e8" stroke-width="1.5" fill="none" opacity="0.25"/>
  </g>
  <text x="200" y="245" text-anchor="middle" font-family="sans-serif" font-size="13" fill="#555">Spectral GNN &middot; Placeholder</text>
</svg>
