<svg xmlns="http://www.w3.org/2000/svg" width="400" height="280" viewBox="0 0 400 280">
  <rect width="400" height="280" fill="#e8f0fe"/>
  <g transform="translate(200,110)">
    <!-- 3D point cloud dots -->
    <circle cx="-70" cy="-50" r="6" fill="#1a73e8" opacity="0.7"/>
    <circle cx="-50" cy="-65" r="5" fill="#1a73e8" opacity="0.55"/>
    <circle cx="-30" cy="-40" r="7" fill="#1a73e8" opacity="0.8"/>
    <circle cx="-10" cy="-60" r="5" fill="#1a73e8" opacity="0.5"/>
    <circle cx="10" cy="-45" r="6" fill="#1a73e8" opacity="0.7"/>
    <circle cx="30" cy="-55" r="5.5" fill="#1a73e8" opacity="0.6"/>
    <circle cx="50" cy="-35" r="6" fill="#1a73e8" opacity="0.75"/>
    <circle cx="70" cy="-50" r="5" fill="#1a73e8" opacity="0.55"/>
    <circle cx="-55" cy="-10" r="6.5" fill="#1a73e8" opacity="0.65"/>
    <circle cx="-25" cy="-5" r="7" fill="#1a73e8" opacity="0.8"/>
    <circle cx="5" cy="-15" r="5.5" fill="#1a73e8" opacity="0.6"/>
    <circle cx="35" cy="-8" r="6" fill="#1a73e8" opacity="0.7"/>
    <circle cx="60" cy="-12" r="5" fill="#1a73e8" opacity="0.55"/>
    <circle cx="-45" cy="25" r="6" fill="#1a73e8" opacity="0.7"/>
    <circle cx="-15" cy="30" r="5.5" fill="#1a73e8" opacity="0.6"/>
    <circle cx="15" cy="20" r="6.5" fill="#1a73e8" opacity="0.75"/>
    <circle cx="45" cy="28" r="5" fill="#1a73e8" opacity="0.5"/>
    <!-- Arrow indicating transformation -->
    <path d="M-80,60 L80,60" stroke="#1a73e8" stroke-width="2" opacity="0.4" marker-end="url(#arr)"/>
    <text x="0" y="78" text-anchor="middle" font-family="sans-serif" font-size="11" fill="#1a73e8" opacity="0.6">Euclidean Completeness</text>
  </g>
  <defs><marker id="arr" markerWidth="8" markerHeight="6" refX="8" refY="3" orient="auto"><path d="M0,0 L8,3 L0,6" fill="#1a73e8" opacity="0.4"/></marker></defs>
  <text x="200" y="245" text-anchor="middle" font-family="sans-serif" font-size="13" fill="#555">Complete NN &middot; Placeholder</text>
</svg>
